<svg width="142" height="91" viewBox="0 0 142 91" fill="none" xmlns="http://www.w3.org/2000/svg">
<path d="M104.775 86.2507L87.1646 8.82065C86.8794 7.56066 85.6236 6.77316 84.3636 7.05837C83.1036 7.34357 82.3161 8.59931 82.6013 9.8593L100.211 87.2894C100.497 88.5493 101.752 89.3368 103.012 89.0516C104.272 88.7622 105.064 87.5107 104.775 86.2507Z" fill="#ABA3FF" stroke="#1C1C1E" stroke-miterlimit="10"/>
<path d="M98.2285 60.0859H93.627L97.624 77.1597H102.502L98.2285 60.0859Z" fill="#1C1C1E"/>
<path d="M57.4186 7.05837C56.1586 6.77316 54.9029 7.56066 54.6177 8.82065L37.0076 86.2507C36.7224 87.5107 37.5099 88.7664 38.7699 89.0516C40.0299 89.3368 41.2856 88.5493 41.5708 87.2894L59.1809 9.8593C59.4661 8.59931 58.6786 7.34357 57.4186 7.05837Z" fill="#ABA3FF" stroke="#1C1C1E" stroke-miterlimit="10"/>
<path d="M48.1574 60.0859H43.3345L39.082 77.1597H44.0709L48.1574 60.0859Z" fill="#1C1C1E"/>
<path fill-rule="evenodd" clip-rule="evenodd" d="M116.397 13.3138H32.3398V72.8293H116.397V13.3138Z" fill="#ABA3FF"/>
<path d="M109.949 7.07129H26.1035L32.3398 13.3138H116.397L109.949 7.07129Z" fill="white"/>
<path d="M26.1035 7.07129V66.5868L32.3398 72.8293M26.1035 7.07129H109.949L116.397 13.3138M26.1035 7.07129L32.3398 13.3138M116.397 13.3138V72.8293H32.3398M116.397 13.3138H32.3398M32.3398 72.8293V13.3138" stroke="#1C1C1E"/>
<path d="M44.25 22.8301V63.8301" stroke="black" stroke-linecap="round" stroke-dasharray="0.1 12"/>
<path d="M56.25 22.8301V63.8301" stroke="black" stroke-linecap="round" stroke-dasharray="0.1 12"/>
<path d="M68.25 22.8301V63.8301" stroke="black" stroke-linecap="round" stroke-dasharray="0.1 12"/>
<path d="M80.25 22.8301V63.8301" stroke="black" stroke-linecap="round" stroke-dasharray="0.1 12"/>
<path d="M92.25 22.8301V63.8301" stroke="black" stroke-linecap="round" stroke-dasharray="0.1 12"/>
<path d="M104.25 22.8301V63.8301" stroke="black" stroke-linecap="round" stroke-dasharray="0.1 12"/>
<path d="M61.2524 31.1841L62.3578 34.171L65.3447 35.2764L62.3578 36.3817L61.2524 39.3686L60.147 36.3817L57.1602 35.2764L60.147 34.171L61.2524 31.1841Z" fill="white"/>
<path d="M80.1192 26.1842C80.4156 25.563 81.2999 25.563 81.5963 26.1842L84.0932 31.4156C84.1661 31.5682 84.2843 31.6945 84.4319 31.7771L89.4044 34.5624C89.9624 34.875 89.9624 35.678 89.4044 35.9905L84.4319 38.7759C84.2843 38.8585 84.1661 38.9847 84.0932 39.1373L81.5963 44.3688C81.2999 44.9901 80.4156 44.9901 80.1192 44.3688L77.6222 39.1373C77.5494 38.9847 77.4312 38.8585 77.2835 38.7759L72.3111 35.9905C71.7531 35.678 71.7531 34.875 72.3111 34.5624L77.2835 31.7771C77.4312 31.6945 77.5494 31.5682 77.6222 31.4156L80.1192 26.1842Z" fill="white"/>
<path d="M65.3826 45.3098C65.6755 44.6767 66.5756 44.6767 66.8684 45.3098L68.5158 48.8724C68.5873 49.0269 68.7051 49.1553 68.8529 49.2397L72.2466 51.1772C72.7967 51.4913 72.7967 52.2845 72.2466 52.5987L68.8529 54.5361C68.7051 54.6206 68.5873 54.7489 68.5158 54.9034L66.8684 58.466C66.5756 59.0992 65.6755 59.0992 65.3826 58.466L63.7352 54.9034C63.6638 54.7489 63.546 54.6206 63.3981 54.5361L60.0045 52.5987C59.4542 52.2845 59.4542 51.4913 60.0045 51.1772L63.3981 49.2397C63.546 49.1553 63.6638 49.0269 63.7352 48.8724L65.3826 45.3098Z" fill="white"/>
<path d="M83.2993 47.7954L84.4047 50.7823L87.3916 51.8877L84.4047 52.9931L83.2993 55.98L82.1939 52.9931L79.207 51.8877L82.1939 50.7823L83.2993 47.7954Z" fill="white"/>
</svg>
