<svg width="1080" height="1080" fill="none" xmlns="http://www.w3.org/2000/svg"><path fill="#fff" d="M0 0h1080v1080H0z"/><g clip-path="url(#clip0_9_215)"><path d="M941.86 881.95H123.79c45.13 0 69.14-89.95 96.62-167.3 7.09-20 14.32-39 22-55.13 13.76-28.79 29.08-48.45 48.05-48.45h168.55s66.23-137.31 99.48-137.31h233.65l81.24 294h105.36c6.02 57.45-6.94 114.19-36.88 114.19z" fill="#C2E7FF" stroke="#C2E7FF" stroke-width="4.5" stroke-linecap="round" stroke-linejoin="round"/><path d="M941.86 881.95c-96.81 0-227.25-.43-346.35 0 48.56-39.93 134.44-409.69 211.4-409.69 76.96 0 57.98 409.69 134.95 409.69zM311.89 881.95c-35.18 0-46.92-63.08-12.56-106.33H120.45c-36.82 27.33-24.25 99.52 5.06 106.33h186.38z" fill="#fff" stroke="#191C1E" stroke-width="4.5" stroke-linecap="round" stroke-linejoin="round"/><path d="M263.3 419.61c61.127 0 110.68-49.553 110.68-110.68 0-61.127-49.553-110.68-110.68-110.68-61.127 0-110.68 49.553-110.68 110.68 0 61.127 49.553 110.68 110.68 110.68z" fill="#F9DEDC" stroke="#F9DEDC" stroke-width="4.5" stroke-linecap="round" stroke-linejoin="round"/><path d="M326.73 618.05a71.62 71.62 0 11-71.66-71.62h49.38a22.24 22.24 0 0122.24 22.24l.04 49.38z" fill="#F7B804" stroke="#F7B804" stroke-width="4.5" stroke-linecap="round" stroke-linejoin="round"/><path d="M767.87 746.23h138.48c44-45.48 36.56-160.79 36.56-160.79h-135s7.37 73.36-40.04 160.79z" fill="#fff" stroke="#191C1E" stroke-width="4.5" stroke-linecap="round" stroke-linejoin="round"/><path d="M152.62 308.93a110.684 110.684 0 0132.417-78.263A110.684 110.684 0 01263.3 198.25M326.73 568.67v49.38a71.601 71.601 0 01-5.721 28.052 71.628 71.628 0 01-68.689 43.518 70.875 70.875 0 01-35.71-11.27" stroke="#1F1F1F" stroke-width="4.5" stroke-linecap="round" stroke-linejoin="round"/><path d="M1015.29 881.95H65.25" stroke="#191C1E" stroke-width="4.5" stroke-linecap="round" stroke-linejoin="round"/><path d="M579 881.95H311.89c62.17 0 97.18-275.55 168.12-272.88 31.92 1.21 45.51 48.63 55.33 104.08 11.85 66.99 17.3 145.55 43.66 168.8z" fill="#fff" stroke="#191C1E" stroke-width="4.5" stroke-linecap="round" stroke-linejoin="round"/><path d="M215.2 302.33l36.22 36.22 65.27-65.27" stroke="#1F1F1F" stroke-width="4.5" stroke-miterlimit="10"/><path d="M880.29 245.93H495.45c-33.126 0-59.98 26.854-59.98 59.98v.01c0 33.126 26.854 59.98 59.98 59.98h384.84c33.126 0 59.98-26.854 59.98-59.98v-.01c0-33.126-26.854-59.98-59.98-59.98z" fill="#C4EED0" stroke="#C4EED0" stroke-width="4.5" stroke-linecap="round" stroke-linejoin="round"/><path d="M485.45 305.92h408.28" stroke="#1F1F1F" stroke-width="4.5" stroke-linecap="round" stroke-linejoin="round"/><path d="M767.87 746.23l121.88 29.4-5.12-29.4H767.87z" fill="#1F1F1F"/></g><defs><clipPath id="clip0_9_215"><path fill="#fff" transform="translate(63 196)" d="M0 0h954.54v688.2H0z"/></clipPath></defs></svg>